<?xml version="1.0" encoding="iso-8859-1"?>
<!-- Generator: Adobe Illustrator 25.0.0, SVG Export Plug-In . SVG Version: 6.00 Build 0)  -->
<svg version="1.1" id="Layer_1" xmlns="http://www.w3.org/2000/svg" xmlns:xlink="http://www.w3.org/1999/xlink" x="0px" y="0px"
	 viewBox="0 0 500 500" style="enable-background:new 0 0 500 500;" xml:space="preserve">
<g>
	<path d="M366.306,218.585c8.018-12.746,11.847-26.432,7.112-41.623c-4.095-13.134-11.752-22.207-25.69-23.554
		c-7.886-0.762-14.89,2.415-21.621,6.416c-1.323,0.787-3.777,1.321-4.774,0.592c-4.738-3.467-9.152-7.412-13.59-11.109
		c14.531-20.905,28.848-41.503,43.331-62.338c-3.006-2.281-5.707-4.329-8.663-6.572c-14.978,21.495-29.666,42.575-44.375,63.683
		c-0.873-0.31-1.39-0.521-1.922-0.678c-11.403-3.357-22.655-7.557-34.258-9.795c-9.61-1.853-19.44-0.847-29.36,1.049
		c-19.928,3.811-38.141,10.527-53.015,25.389c-0.811,0.811-3.07,0.762-4.332,0.252c-4.263-1.723-8.241-4.297-12.58-5.712
		c-12.828-4.182-27.41,2.933-32.761,14.749c-8.046,17.767-5.48,34.216,4.667,49.92c1.756,2.718,1.928,5,0.983,7.875
		c-4.421,13.441-6.254,27.321-5.419,41.455c1.376,23.301,7.447,44.903,22.454,63.027c2.682,3.239,5.185,6.638,7.868,10.088
		c-10.697,15.367-21.417,30.767-32.207,46.267c1.79,1.542,3.432,2.956,5.267,4.537c1.59,0.361,3.114,0.507,4.612,0.497
		c10.513-15.111,20.626-29.647,31.09-44.688c2.155,1.939,3.939,3.873,6.018,5.36c11.58,8.284,24.577,13.941,37.909,17.547
		c26.543,7.179,53.289,7.431,79.62-2.388c13.268-4.948,25.963-10.586,37.26-19.801c10.916-8.904,19.891-19.321,27.068-31.439
		c3.204-5.41,5.948-11.317,7.785-17.364c7.326-24.108,7.977-48.399,0.347-72.63C364.074,224.249,364.354,221.688,366.306,218.585z
		 M354.422,293.117c-4.901,14.362-12.231,27.174-22.79,39.423c1.316-7.946,2.452-14.802,3.587-21.657
		c-20.994,30.44-48.613,48.512-84.978,48.371c-36.142-0.14-63.974-17.587-84.948-48.389c0.506,3.511,0.938,7.036,1.54,10.529
		c0.601,3.489,1.374,6.946,2.229,11.204c-9.013-9.382-15.069-19.964-19.967-31.158c-9.143-20.897-10.737-42.622-4.274-64.63
		c4.849-16.512,12.572-31.558,22.766-45.303c10.547-14.22,22.901-25.936,38.314-34.37c23.368-12.788,47.646-14.918,72.439-6.598
		c19.98,6.704,36.796,19.256,50.362,35.823c12.053,14.719,21.402,31.295,26.752,50.024
		C360.888,255.405,360.841,274.306,354.422,293.117z"/>
	<path d="M128.025,324.489c-2.823,7.125-5.595,14.121-8.697,21.949c-7.017-4.482-13.586-8.793-20.266-12.909
		c-6.046-3.725-12.24-7.19-18.324-10.851c-13.114-7.893-26.213-15.812-39.29-23.771c-9.362-5.698-18.536-11.751-28.08-17.096
		c-4.404-2.466-4.132-5.99-4.35-10.054c-0.196-3.663,1.146-5.486,4.135-7.242c11.194-6.579,22.211-13.484,33.277-20.298
		c9.215-5.674,18.402-11.4,27.609-17.089c10.192-6.298,20.432-12.513,30.573-18.897c4.849-3.052,9.519-6.41,14.621-9.868
		c3.047,7.742,5.863,14.895,8.903,22.619c-6.307,3.795-12.628,7.712-19.05,11.439c-15.236,8.843-30.562,17.521-45.768,26.42
		c-7.423,4.344-14.659,9.035-22.004,13.584c4.472,2.95,8.752,6.071,13.29,8.713c18.354,10.69,36.821,21.171,55.172,31.865
		C115.849,316.544,121.7,320.492,128.025,324.489z"/>
	<path d="M461.483,266.113c-3.973-2.654-7.881-5.57-12.052-7.998c-18.227-10.61-36.567-21.013-54.788-31.634
		c-6.573-3.831-12.93-8.062-19.896-12.431c2.684-6.847,5.461-13.932,8.485-21.649c7.67,4.447,15.043,8.6,22.298,12.965
		c6.163,3.708,12.146,7.737,18.285,11.489c13.187,8.06,26.439,16.006,39.635,24.05c9.113,5.555,18.138,11.267,27.294,16.743
		c2.1,1.256,2.873,2.612,3.137,5.182c0.635,6.195-1.224,9.846-6.901,12.891c-11.282,6.051-22.011,13.218-32.948,19.959
		c-9.089,5.602-18.139,11.274-27.226,16.881c-10.811,6.671-21.676,13.248-32.448,19.987c-3.509,2.195-6.798,4.771-10.727,7.555
		c-3.093-7.708-5.972-14.883-9.171-22.857c7.21-4.156,14.282-8.221,21.344-12.305c13.743-7.947,27.519-15.835,41.205-23.886
		C445.193,276.24,453.234,271.161,461.483,266.113z"/>
	<path d="M297.788,280.138c-2.953,12.128-5.016,23.763-8.672,34.829c-4.841,14.652-12.669,27.256-28.404,31.575
		c-18.774,5.153-35.218-2.661-44.833-20.802c-6.851-12.926-9.662-27.033-11.702-41.4c-0.184-1.295-0.417-2.583-0.664-4.102
		c-1.098,0.182-1.924,0.277-2.73,0.46c-5.347,1.215-10.008,0.313-15.104-2.448c-20.683-11.204-27.171-37.521-17.501-60.164
		c5.506-12.894,13.653-23.526,24.841-31.211c11.052-7.591,27.145-8.273,37.315,5.752c5.646,7.787,5.31,16.398,1.385,24.571
		c-3.169,6.6-7.089,12.961-11.538,18.708c-5.555,7.176-8.585,14.967-9.019,24.083c-0.154,3.246-0.578,6.613-1.635,9.64
		c-1.044,2.989-0.054,4.245,2.189,5.677c6.726,4.295,13.69,7.701,21.822,5.786c3.553-0.837,6.94-2.463,10.364-3.835
		c0.571-0.229,1.171-0.908,1.373-1.516c1.268-3.814-1.669-9.973-4.943-12.221c-3.77-2.589-7.532-5.454-10.552-8.904
		c-5.808-6.633-4.259-9.795,2.261-13.372c11.585-6.355,24.517-6.373,36.134-0.109c6.975,3.761,8.207,7.208,2.299,13.609
		c-3.482,3.772-7.8,6.889-12.163,9.556c-4.211,2.574-2.391,6.578-2.949,9.925c-0.181,1.084,1.666,3.03,3.002,3.812
		c11.332,6.635,21.732,3.384,31.575-3.731c0.811-0.586,1.221-2.456,1.09-3.642c-0.474-4.278-1.448-8.497-1.889-12.777
		c-0.831-8.083-3.569-15.158-8.572-21.529c-3.869-4.928-7.389-10.255-10.377-15.805c-5.938-11.03-5.494-21.559,0.611-28.92
		c7.89-9.515,19.38-12.98,30.703-7.682c10.412,4.871,18.81,12.752,24.89,23.08c4.92,8.359,9,17.059,9.937,26.91
		c1.579,16.606-3.31,30.532-16.45,40.823C313.101,280.075,305.987,283.772,297.788,280.138z M281.08,288.494
		c-1.42,0.18-2.099,0.229-2.764,0.356c-8.882,1.688-17.666,1.892-26.359-1.292c-1.321-0.484-3.026,0.146-4.551,0.28
		c-6.66,0.588-13.312,1.327-19.984,1.701c-2.469,0.139-4.983-0.572-8.11-0.978c0.996,3.934,1.833,7.239,2.9,11.451
		c1.538-2.306,2.428-3.641,2.842-4.262c1.921,1.084,3.244,2.32,4.731,2.593c13.267,2.438,26.584,2.458,39.868,0.189
		c1.879-0.321,3.594-1.68,5.78-2.753c0.509,0.734,1.43,2.061,2.82,4.064C279.287,295.695,280.119,292.354,281.08,288.494z
		 M268.006,323.589c-6.091,1.297-11.897,3.519-17.694,3.496c-5.952-0.023-11.897-2.24-17.832-3.493
		c-0.411-1.877-0.748-3.412-1.109-5.065c-3.961,3.356-5.458,6.265-3.717,7.884c3.67,3.412,7.316,7.443,11.722,9.289
		c10.921,4.576,21.235,2.709,30.24-5.704c4.952-4.626,5.004-6.616-0.575-11.578C268.707,320.089,268.392,321.661,268.006,323.589z
		 M282.203,214.946c12.599-3.342,21.444,0.653,27.777,11.047c1.362,2.235,3.244,3.446,5.791,1.685
		c2.474-1.711,3.039-5.519,1.25-8.307c-6.098-9.502-22.946-13.104-32.195-6.859C284.156,212.965,283.615,213.624,282.203,214.946z
		 M217.576,214.897c-9.446-9.168-29.817-5.804-34.906,5.319c-0.83,1.813,0.27,5.569,1.725,7.288
		c2.169,2.562,4.513,0.434,5.886-1.815C196.567,215.399,205.357,211.705,217.576,214.897z"/>
</g>
</svg>
